<svg viewBox="0 0 30 30" xmlns="http://www.w3.org/2000/svg">
  <defs></defs>
  <path fill="#111" d="M 23.822 9.537 L 23.822 9.528 C 23.773 9.362 23.716 9.198 23.654 9.036 C 23.523 8.704 23.358 8.389 23.157 8.101 C 23.056 7.949 22.948 7.803 22.833 7.661 L 22.66 7.466 C 22.539 7.331 22.405 7.208 22.268 7.079 L 15.85 1.422 C 15.458 1.072 15.023 0.784 14.556 0.567 C 14.36 0.472 14.158 0.39 13.953 0.32 C 12.68 -0.106 11.32 -0.106 10.047 0.32 C 9.845 0.392 9.646 0.474 9.45 0.567 C 8.984 0.78 8.546 1.07 8.153 1.422 L 1.738 7.079 C 1.6 7.208 1.463 7.331 1.349 7.463 C 1.311 7.505 1.273 7.547 1.234 7.595 L 1.167 7.676 C 1.113 7.734 1.064 7.798 1.023 7.85 C 0.833 8.093 0.668 8.357 0.525 8.637 L 0.519 8.671 C 0.378 8.944 0.265 9.233 0.184 9.535 C 0.153 9.65 0.123 9.766 0.095 9.887 L 0.092 9.915 C 0.034 10.223 0.002 10.538 0 10.853 L 0 13.28 C 0.054 14.699 0.671 16.02 1.691 16.898 L 2.411 17.651 C 2.663 17.918 2.997 18.072 3.346 18.087 C 3.438 18.347 3.592 18.573 3.788 18.747 L 8.13 22.579 C 9.228 23.519 10.588 24.021 11.981 23.999 C 13.375 24.019 14.732 23.519 15.829 22.579 L 16.771 21.752 C 17.121 21.438 17.324 20.969 17.319 20.474 L 17.319 18.544 C 17.311 18.37 17.287 18.197 17.246 18.028 C 17.155 17.728 16.99 17.464 16.768 17.261 L 10.81 12.005 L 12 10.955 L 19.639 17.705 C 20.162 18.146 20.889 18.146 21.41 17.705 L 22.268 16.935 C 23.34 16.035 23.978 14.648 24 13.171 L 24 10.855 C 24.004 10.407 23.945 9.962 23.822 9.535 L 23.822 9.537 Z M 15.858 18.357 L 15.019 19.104 C 14.149 19.834 13.078 20.221 11.981 20.199 C 10.883 20.221 9.811 19.836 8.94 19.104 L 4.697 15.348 L 8.508 11.989 C 8.548 11.955 8.603 11.955 8.641 11.989 L 15.858 18.357 Z M 21.454 13.457 L 20.523 14.285 L 12.138 6.887 C 12.101 6.85 12.05 6.83 12 6.835 C 11.949 6.83 11.9 6.848 11.862 6.885 L 3.481 14.287 L 2.549 13.459 C 1.803 12.851 1.351 11.905 1.32 10.887 C 1.328 9.997 1.668 9.148 2.259 8.538 C 2.259 8.538 2.262 8.538 2.262 8.535 L 2.395 8.396 C 2.447 8.351 2.495 8.302 2.549 8.254 L 8.963 2.592 C 9.493 2.133 10.11 1.81 10.768 1.648 C 11.981 1.33 13.259 1.495 14.371 2.112 C 14.607 2.247 14.83 2.412 15.04 2.592 L 21.454 8.257 C 21.508 8.302 21.56 8.351 21.601 8.389 C 21.649 8.438 21.696 8.49 21.741 8.54 C 22.338 9.143 22.68 10 22.686 10.902 C 22.647 11.913 22.196 12.851 21.454 13.459 L 21.454 13.457 Z" style=""></path>
  <path fill="#FFF" d="M 15.858 18.357 L 15.019 19.104 C 14.149 19.834 13.078 20.221 11.981 20.199 C 10.883 20.221 9.811 19.836 8.94 19.104 L 4.697 15.348 L 8.508 11.989 C 8.548 11.955 8.603 11.955 8.641 11.989 L 15.855 18.357 L 15.858 18.357 Z" style=""></path>
  <path fill="#FFF" d="M 22.686 10.9 C 22.647 11.912 22.196 12.85 21.454 13.457 L 20.523 14.285 L 12.138 6.887 C 12.101 6.85 12.05 6.83 12 6.835 C 11.949 6.83 11.9 6.848 11.862 6.885 L 3.481 14.287 L 2.549 13.459 C 1.803 12.851 1.351 11.905 1.32 10.887 C 1.328 9.997 1.668 9.148 2.259 8.538 C 2.259 8.538 2.262 8.538 2.262 8.535 L 2.395 8.396 C 2.447 8.351 2.495 8.302 2.549 8.254 L 8.963 2.592 C 9.493 2.133 10.11 1.81 10.768 1.648 C 11.981 1.33 13.259 1.495 14.371 2.112 C 14.607 2.247 14.83 2.412 15.04 2.592 L 21.454 8.257 C 21.508 8.302 21.56 8.351 21.601 8.389 C 21.649 8.438 21.696 8.49 21.741 8.54 C 22.338 9.143 22.68 10 22.686 10.902 L 22.686 10.9 Z" style=""></path>
</svg>