<svg xmlns="http://www.w3.org/2000/svg" id="b7e6d4be-0271-4266-8428-993f5d19aefc" data-name="Layer 1" width="260.8566" height="64" viewBox="0 0 260.8566 64">
  <g>
    
    <path d="M63.52,26.1787v-.01c-.13-.4-.28-.78-.45-1.17a10.468,10.468,0,0,0-1.31-2.21,13.4861,13.4861,0,0,0-.88-1.04l-.45-.46c-.33-.32-.68-.61-1.05-.91L42.27,6.9988a14.8154,14.8154,0,0,0-3.46-2.02,15.31,15.31,0,0,0-1.61-.58,18.2287,18.2287,0,0,0-10.4,0c-.54.17-1.07.36-1.6.58a14.6149,14.6149,0,0,0-3.46,2.02L4.63,20.3788c-.36.3-.72.59-1.03.9-.1.1-.21.2-.31.31l-.18.19c-.14.14-.27.29-.38.42a10.8277,10.8277,0,0,0-1.32,1.86c-.01.02-.02.05-.03.07-.17.31-.33.62-.49.97a4.6815,4.6815,0,0,0-.18.45,4.3135,4.3135,0,0,0-.22.63c-.08.27-.16.55-.24.83,0,.02-.01.05-.01.07-.06.28-.12.57-.15.84a9.8942,9.8942,0,0,0-.09,1.38v5.73a11.3714,11.3714,0,0,0,4.51,8.55l1.92,1.78a3.8364,3.8364,0,0,0,2.49,1.03,3.7953,3.7953,0,0,0,1.18,1.56l11.58,9.06a16.6616,16.6616,0,0,0,10.27,3.35,16.6538,16.6538,0,0,0,10.26-3.35l2.51-1.96a3.8188,3.8188,0,0,0,1.47-3.02v-4.56a6.4661,6.4661,0,0,0-.2-1.22,3.3256,3.3256,0,0,0-.14-.36,3.96,3.96,0,0,0-1.14-1.45l-15.88-12.42,3.17-2.48,20.37,15.94a3.96,3.96,0,0,0,4.72,0l2.29-1.81a11.3618,11.3618,0,0,0,4.62-8.9v-5.47A10.1275,10.1275,0,0,0,63.52,26.1787Zm-21.23,20.85-2.24,1.76a13.181,13.181,0,0,1-8.1,2.59,13.19,13.19,0,0,1-8.11-2.59l-11.32-8.87,10.17-7.94a.274.274,0,0,1,.36,0Zm14.92-11.58-2.48,1.95-22.36-17.48a.5592.5592,0,0,0-.37-.13.5779.5779,0,0,0-.37.13L9.28,37.3987l-2.48-1.95a7.8384,7.8384,0,0,1-3.28-6.08,7.6373,7.6373,0,0,1,2.5-5.55.01.01,0,0,0,.01-.01c.11-.11.25-.23.36-.33.13-.11.26-.22.41-.34l17.1-13.37a11.8481,11.8481,0,0,1,3.77-1.95c.34-.11.69-.21,1.05-.29a14.4675,14.4675,0,0,1,9.6,1.1,11.8729,11.8729,0,0,1,1.79,1.14l17.1,13.38c.15.11.28.22.39.31.13.12.26.24.38.36a7.5623,7.5623,0,0,1,2.51,5.59A7.8988,7.8988,0,0,1,57.21,35.4488Z" style="fill: #111"/>
    <path d="M42.29,47.0287l-2.24,1.76a13.181,13.181,0,0,1-8.1,2.59,13.19,13.19,0,0,1-8.11-2.59l-11.32-8.87,10.17-7.94a.274.274,0,0,1,.36,0Z" style="fill: #fff"/>
    <path d="M60.49,29.4087a7.8988,7.8988,0,0,1-3.28,6.04l-2.48,1.95-22.36-17.48a.5592.5592,0,0,0-.37-.13.5779.5779,0,0,0-.37.13L9.28,37.3987l-2.48-1.95a7.8384,7.8384,0,0,1-3.28-6.08,7.6373,7.6373,0,0,1,2.5-5.55.01.01,0,0,0,.01-.01c.11-.11.25-.23.36-.33.13-.11.26-.22.41-.34l17.1-13.37a11.8481,11.8481,0,0,1,3.77-1.95c.34-.11.69-.21,1.05-.29a14.4675,14.4675,0,0,1,9.6,1.1,11.8729,11.8729,0,0,1,1.79,1.14l17.1,13.38c.15.11.28.22.39.31.13.12.26.24.38.36A7.5623,7.5623,0,0,1,60.49,29.4087Z" style="fill: #fff"/>
  </g>
</svg>