<?xml version="1.0" encoding="UTF-8"?>
<svg xmlns="http://www.w3.org/2000/svg" xmlns:xlink="http://www.w3.org/1999/xlink" width="30px" height="27px" viewBox="0 0 30 27" version="1.1">
<g id="surface1">
<path style=" stroke:none;fill-rule:nonzero;fill:rgb(6.666667%,6.666667%,6.666667%);fill-opacity:1;" d="M 29.472656 10.742188 L 29.472656 10.734375 C 29.410156 10.546875 29.34375 10.367188 29.265625 10.183594 C 29.105469 9.8125 28.90625 9.460938 28.660156 9.136719 C 28.535156 8.964844 28.398438 8.800781 28.261719 8.644531 L 28.050781 8.425781 C 27.902344 8.273438 27.738281 8.136719 27.570312 7.992188 L 19.714844 1.660156 C 19.230469 1.265625 18.695312 0.941406 18.128906 0.703125 C 17.882812 0.597656 17.640625 0.5 17.390625 0.425781 C 15.828125 -0.0507812 14.171875 -0.0507812 12.609375 0.425781 C 12.363281 0.503906 12.121094 0.597656 11.878906 0.703125 C 11.308594 0.941406 10.773438 1.265625 10.289062 1.660156 L 2.4375 7.992188 C 2.269531 8.136719 2.101562 8.273438 1.960938 8.421875 C 1.914062 8.46875 1.867188 8.515625 1.820312 8.570312 L 1.738281 8.660156 C 1.671875 8.726562 1.613281 8.796875 1.5625 8.855469 C 1.332031 9.128906 1.125 9.421875 0.953125 9.738281 C 0.949219 9.746094 0.949219 9.761719 0.945312 9.773438 C 0.863281 9.917969 0.789062 10.066406 0.71875 10.230469 C 0.6875 10.300781 0.660156 10.371094 0.636719 10.445312 C 0.59375 10.539062 0.558594 10.640625 0.535156 10.742188 C 0.496094 10.871094 0.460938 11 0.425781 11.136719 C 0.425781 11.148438 0.421875 11.15625 0.421875 11.167969 C 0.390625 11.304688 0.363281 11.4375 0.351562 11.566406 C 0.324219 11.785156 0.308594 12 0.308594 12.21875 L 0.308594 14.933594 C 0.378906 16.535156 1.140625 18.019531 2.378906 18.984375 L 3.261719 19.828125 C 3.574219 20.125 3.976562 20.300781 4.40625 20.316406 C 4.519531 20.605469 4.707031 20.859375 4.945312 21.054688 L 10.261719 25.34375 C 11.617188 26.398438 13.277344 26.960938 14.976562 26.933594 C 16.675781 26.960938 18.332031 26.398438 19.6875 25.34375 L 20.839844 24.417969 C 21.265625 24.074219 21.515625 23.546875 21.511719 22.988281 L 21.511719 20.828125 C 21.503906 20.632812 21.46875 20.4375 21.421875 20.25 C 21.40625 20.191406 21.382812 20.132812 21.359375 20.078125 C 21.238281 19.808594 21.058594 19.574219 20.835938 19.390625 L 13.542969 13.507812 L 15 12.332031 L 24.351562 19.886719 C 24.996094 20.378906 25.875 20.378906 26.519531 19.886719 L 27.570312 19.027344 C 28.875 18.039062 29.65625 16.480469 29.691406 14.8125 L 29.691406 12.21875 C 29.695312 11.71875 29.621094 11.21875 29.472656 10.742188 Z M 19.722656 20.617188 L 18.695312 21.453125 C 17.621094 22.277344 16.3125 22.703125 14.976562 22.679688 C 13.636719 22.703125 12.328125 22.277344 11.253906 21.453125 L 6.058594 17.25 L 10.726562 13.488281 C 10.773438 13.449219 10.84375 13.449219 10.890625 13.488281 Z M 26.574219 15.132812 L 25.433594 16.058594 L 15.167969 7.777344 C 15.121094 7.734375 15.0625 7.714844 15 7.71875 C 14.9375 7.714844 14.878906 7.734375 14.832031 7.777344 L 4.570312 16.058594 L 3.429688 15.132812 C 2.527344 14.46875 1.964844 13.402344 1.925781 12.253906 C 1.9375 11.253906 2.351562 10.300781 3.074219 9.625 C 3.074219 9.625 3.078125 9.625 3.078125 9.621094 C 3.128906 9.570312 3.191406 9.511719 3.242188 9.464844 C 3.304688 9.414062 3.363281 9.359375 3.429688 9.304688 L 11.28125 2.96875 C 11.800781 2.558594 12.386719 2.242188 13.011719 2.042969 C 13.167969 1.992188 13.328125 1.945312 13.492188 1.910156 C 14.976562 1.554688 16.535156 1.738281 17.902344 2.429688 C 18.191406 2.582031 18.464844 2.765625 18.722656 2.96875 L 26.574219 9.308594 C 26.640625 9.359375 26.703125 9.414062 26.753906 9.457031 C 26.8125 9.511719 26.871094 9.570312 26.925781 9.625 C 27.65625 10.300781 28.074219 11.261719 28.082031 12.269531 C 28.027344 13.414062 27.472656 14.46875 26.574219 15.132812 Z M 26.574219 15.132812 "/>
<path style=" stroke:none;fill-rule:nonzero;fill:rgb(100%,100%,100%);fill-opacity:1;" d="M 19.722656 20.617188 L 18.695312 21.453125 C 17.621094 22.277344 16.3125 22.703125 14.976562 22.679688 C 13.636719 22.703125 12.328125 22.277344 11.253906 21.453125 L 6.058594 17.25 L 10.726562 13.488281 C 10.773438 13.449219 10.84375 13.449219 10.890625 13.488281 Z M 19.722656 20.617188 "/>
<path style=" stroke:none;fill-rule:nonzero;fill:rgb(100%,100%,100%);fill-opacity:1;" d="M 28.082031 12.269531 C 28.027344 13.414062 27.472656 14.46875 26.574219 15.132812 L 25.433594 16.058594 L 15.167969 7.777344 C 15.121094 7.734375 15.0625 7.714844 15 7.71875 C 14.9375 7.714844 14.878906 7.734375 14.832031 7.777344 L 4.570312 16.058594 L 3.429688 15.132812 C 2.527344 14.46875 1.964844 13.402344 1.925781 12.253906 C 1.9375 11.253906 2.351562 10.300781 3.074219 9.625 C 3.074219 9.625 3.078125 9.625 3.078125 9.621094 C 3.128906 9.570312 3.191406 9.511719 3.242188 9.464844 C 3.304688 9.414062 3.363281 9.359375 3.429688 9.304688 L 11.28125 2.96875 C 11.800781 2.558594 12.386719 2.242188 13.011719 2.042969 C 13.167969 1.992188 13.328125 1.945312 13.492188 1.910156 C 14.976562 1.554688 16.535156 1.738281 17.902344 2.429688 C 18.191406 2.582031 18.464844 2.765625 18.722656 2.96875 L 26.574219 9.308594 C 26.640625 9.359375 26.703125 9.414062 26.753906 9.457031 C 26.8125 9.511719 26.871094 9.570312 26.925781 9.625 C 27.65625 10.300781 28.074219 11.261719 28.082031 12.269531 Z M 28.082031 12.269531 "/>
</g>
</svg>
